<svg width="64" height="64" viewBox="0 0 64 64" fill="none" xmlns="http://www.w3.org/2000/svg">
<g clip-path="url(#clip0_109_1067)">
<path d="M32 64C49.6731 64 64 49.6731 64 32C64 14.3269 49.6731 0 32 0C14.3269 0 0 14.3269 0 32C0 49.6731 14.3269 64 32 64Z" fill="#F0F0F0"/>
<path d="M32 0C19.3133 0 8.35129 7.38313 3.17529 18.087H60.8247C55.6488 7.38313 44.6867 0 32 0Z" fill="#338AF3"/>
<path d="M32 64C44.6867 64 55.6488 56.6169 60.8248 45.913H3.17529C8.35129 56.6169 19.3133 64 32 64Z" fill="#338AF3"/>
<path d="M41.5644 32L37.6563 33.8384L39.7374 37.6232L35.4937 36.8114L34.9559 41.0984L32 37.9454L29.044 41.0984L28.5064 36.8114L24.2627 37.6231L26.3437 33.8382L22.4357 32L26.3438 30.1616L24.2627 26.3769L28.5063 27.1886L29.0442 22.9016L32 26.0546L34.956 22.9016L35.4937 27.1886L39.7375 26.3769L37.6564 30.1617L41.5644 32Z" fill="#FFDA44"/>
</g>
<defs>
<clipPath id="clip0_109_1067">
<rect width="64" height="64" fill="white"/>
</clipPath>
</defs>
</svg>
