<svg width="25" height="24" viewBox="0 0 25 24" fill="none" xmlns="http://www.w3.org/2000/svg">
<path d="M8.09796 5.75C7.68294 5.75 7.33878 5.41 7.33878 5V2C7.33878 1.59 7.68294 1.25 8.09796 1.25C8.51298 1.25 8.85714 1.59 8.85714 2V5C8.85714 5.41 8.51298 5.75 8.09796 5.75Z" fill="black"/>
<path d="M16.1959 5.75C15.7809 5.75 15.4367 5.41 15.4367 5V2C15.4367 1.59 15.7809 1.25 16.1959 1.25C16.6109 1.25 16.9551 1.59 16.9551 2V5C16.9551 5.41 16.6109 5.75 16.1959 5.75Z" fill="black"/>
<path d="M8.60407 14.5C8.47248 14.5 8.34089 14.47 8.21942 14.42C8.08783 14.37 7.9866 14.3 7.88538 14.21C7.70318 14.02 7.59183 13.77 7.59183 13.5C7.59183 13.37 7.6222 13.24 7.67281 13.12C7.72342 13 7.79428 12.89 7.88538 12.79C7.9866 12.7 8.08783 12.63 8.21942 12.58C8.58383 12.43 9.03934 12.51 9.32277 12.79C9.50497 12.98 9.61632 13.24 9.61632 13.5C9.61632 13.56 9.60619 13.63 9.59607 13.7C9.58595 13.76 9.5657 13.82 9.53534 13.88C9.51509 13.94 9.48473 14 9.44424 14.06C9.41387 14.11 9.36325 14.16 9.32277 14.21C9.13044 14.39 8.86726 14.5 8.60407 14.5Z" fill="black"/>
<path d="M12.1469 14.5C12.0154 14.5 11.8838 14.47 11.7623 14.42C11.6307 14.37 11.5295 14.3 11.4283 14.21C11.2461 14.02 11.1347 13.77 11.1347 13.5C11.1347 13.37 11.1651 13.24 11.2157 13.12C11.2663 13 11.3372 12.89 11.4283 12.79C11.5295 12.7 11.6307 12.63 11.7623 12.58C12.1267 12.42 12.5822 12.51 12.8656 12.79C13.0478 12.98 13.1592 13.24 13.1592 13.5C13.1592 13.56 13.1491 13.63 13.1389 13.7C13.1288 13.76 13.1086 13.82 13.0782 13.88C13.058 13.94 13.0276 14 12.9871 14.06C12.9567 14.11 12.9061 14.16 12.8656 14.21C12.6733 14.39 12.4101 14.5 12.1469 14.5Z" fill="black"/>
<path d="M15.6898 14.5C15.5582 14.5 15.4266 14.47 15.3051 14.42C15.1736 14.37 15.0723 14.3 14.9711 14.21C14.9306 14.16 14.8901 14.11 14.8496 14.06C14.8091 14 14.7788 13.94 14.7585 13.88C14.7282 13.82 14.7079 13.76 14.6978 13.7C14.6877 13.63 14.6776 13.56 14.6776 13.5C14.6776 13.24 14.7889 12.98 14.9711 12.79C15.0723 12.7 15.1736 12.63 15.3051 12.58C15.6797 12.42 16.1251 12.51 16.4085 12.79C16.5907 12.98 16.702 13.24 16.702 13.5C16.702 13.56 16.6919 13.63 16.6818 13.7C16.6717 13.76 16.6514 13.82 16.6211 13.88C16.6008 13.94 16.5705 14 16.53 14.06C16.4996 14.11 16.449 14.16 16.4085 14.21C16.2162 14.39 15.953 14.5 15.6898 14.5Z" fill="black"/>
<path d="M8.60407 18C8.47248 18 8.34089 17.97 8.21942 17.92C8.09795 17.87 7.9866 17.8 7.88538 17.71C7.70318 17.52 7.59183 17.26 7.59183 17C7.59183 16.87 7.6222 16.74 7.67281 16.62C7.72342 16.49 7.79428 16.38 7.88538 16.29C8.25991 15.92 8.94823 15.92 9.32277 16.29C9.50497 16.48 9.61632 16.74 9.61632 17C9.61632 17.26 9.50497 17.52 9.32277 17.71C9.13044 17.89 8.86726 18 8.60407 18Z" fill="black"/>
<path d="M12.1469 18C11.8838 18 11.6206 17.89 11.4283 17.71C11.2461 17.52 11.1347 17.26 11.1347 17C11.1347 16.87 11.1651 16.74 11.2157 16.62C11.2663 16.49 11.3372 16.38 11.4283 16.29C11.8028 15.92 12.4911 15.92 12.8656 16.29C12.9567 16.38 13.0276 16.49 13.0782 16.62C13.1288 16.74 13.1592 16.87 13.1592 17C13.1592 17.26 13.0478 17.52 12.8656 17.71C12.6733 17.89 12.4101 18 12.1469 18Z" fill="black"/>
<path d="M15.6898 18C15.4266 18 15.1634 17.89 14.9711 17.71C14.88 17.62 14.8091 17.51 14.7585 17.38C14.7079 17.26 14.6776 17.13 14.6776 17C14.6776 16.87 14.7079 16.74 14.7585 16.62C14.8091 16.49 14.88 16.38 14.9711 16.29C15.2039 16.06 15.5582 15.95 15.8821 16.02C15.953 16.03 16.0137 16.05 16.0745 16.08C16.1352 16.1 16.1959 16.13 16.2567 16.17C16.3073 16.2 16.3579 16.25 16.4085 16.29C16.5907 16.48 16.702 16.74 16.702 17C16.702 17.26 16.5907 17.52 16.4085 17.71C16.2162 17.89 15.953 18 15.6898 18Z" fill="black"/>
<path d="M20.751 9.83997H3.54284C3.12782 9.83997 2.78366 9.49997 2.78366 9.08997C2.78366 8.67997 3.12782 8.33997 3.54284 8.33997H20.751C21.166 8.33997 21.5102 8.67997 21.5102 9.08997C21.5102 9.49997 21.166 9.83997 20.751 9.83997Z" fill="black"/>
<path d="M16.1959 22.75H8.09797C4.40327 22.75 2.27756 20.65 2.27756 17V8.5C2.27756 4.85 4.40327 2.75 8.09797 2.75H16.1959C19.8906 2.75 22.0163 4.85 22.0163 8.5V17C22.0163 20.65 19.8906 22.75 16.1959 22.75ZM8.09797 4.25C5.20295 4.25 3.79592 5.64 3.79592 8.5V17C3.79592 19.86 5.20295 21.25 8.09797 21.25H16.1959C19.0909 21.25 20.498 19.86 20.498 17V8.5C20.498 5.64 19.0909 4.25 16.1959 4.25H8.09797Z" fill="black"/>
</svg>
