<svg width="25" height="24" viewBox="0 0 25 24" fill="none" xmlns="http://www.w3.org/2000/svg">
<path d="M21.2572 22.75H3.03674C2.62172 22.75 2.27756 22.41 2.27756 22C2.27756 21.59 2.62172 21.25 3.03674 21.25H21.2572C21.6722 21.25 22.0163 21.59 22.0163 22C22.0163 22.41 21.6722 22.75 21.2572 22.75Z" fill="black"/>
<path d="M5.66855 19.75H4.04899C3.07723 19.75 2.27756 18.96 2.27756 18V9.38C2.27756 8.42 3.07723 7.63 4.04899 7.63H5.66855C6.64031 7.63 7.43998 8.42 7.43998 9.38V18C7.43998 18.96 6.64031 19.75 5.66855 19.75ZM4.04899 9.12C3.90727 9.12 3.79592 9.23 3.79592 9.37V18C3.79592 18.14 3.90727 18.25 4.04899 18.25H5.66855C5.81027 18.25 5.92161 18.14 5.92161 18V9.38C5.92161 9.24 5.81027 9.13 5.66855 9.13H4.04899V9.12Z" fill="black"/>
<path d="M12.9569 19.75H11.3373C10.3656 19.75 9.56592 18.96 9.56592 18V6.19C9.56592 5.23 10.3656 4.44 11.3373 4.44H12.9569C13.9287 4.44 14.7283 5.23 14.7283 6.19V18C14.7283 18.96 13.9287 19.75 12.9569 19.75ZM11.3373 5.94C11.1956 5.94 11.0843 6.05 11.0843 6.19V18C11.0843 18.14 11.1956 18.25 11.3373 18.25H12.9569C13.0986 18.25 13.21 18.14 13.21 18V6.19C13.21 6.05 13.0986 5.94 12.9569 5.94H11.3373Z" fill="black"/>
<path d="M20.2448 19.75H18.6252C17.6535 19.75 16.8538 18.96 16.8538 18V3C16.8538 2.04 17.6535 1.25 18.6252 1.25H20.2448C21.2165 1.25 22.0162 2.04 22.0162 3V18C22.0162 18.96 21.2165 19.75 20.2448 19.75ZM18.6252 2.75C18.4835 2.75 18.3722 2.86 18.3722 3V18C18.3722 18.14 18.4835 18.25 18.6252 18.25H20.2448C20.3865 18.25 20.4978 18.14 20.4978 18V3C20.4978 2.86 20.3865 2.75 20.2448 2.75H18.6252Z" fill="black"/>
</svg>
