<svg width="64" height="64" viewBox="0 0 64 64" fill="none" xmlns="http://www.w3.org/2000/svg">
<g clip-path="url(#clip0_109_1230)">
<path d="M0 32C0 14.327 14.327 0 32 0C49.673 0 64 14.327 64 32L32 34.7826L0 32Z" fill="#FFDA44"/>
<path d="M4.28198 48C9.81511 57.5645 20.1556 64 32 64C43.8444 64 54.1849 57.5645 59.718 48L32 45.913L4.28198 48Z" fill="#D80027"/>
<path d="M59.718 48C62.4408 43.2933 64 37.8289 64 32H0C0 37.8289 1.55925 43.2933 4.282 48H59.718Z" fill="#0052B4"/>
<path d="M32 43.1304C38.1471 43.1304 43.1304 38.1471 43.1304 32C43.1304 25.8529 38.1471 20.8696 32 20.8696C25.8529 20.8696 20.8696 25.8529 20.8696 32C20.8696 38.1471 25.8529 43.1304 32 43.1304Z" fill="#FFDA44"/>
<path d="M32 38.9565C28.1641 38.9565 25.0435 35.8358 25.0435 32V27.8261C25.0435 23.9903 28.1642 20.8696 32 20.8696C35.8357 20.8696 38.9565 23.9904 38.9565 27.8261V32C38.9565 35.8359 35.8358 38.9565 32 38.9565Z" fill="#338AF3"/>
<path d="M43.1304 15.3044H34.7825C34.7825 13.7676 33.5366 12.5218 31.9999 12.5218C30.4631 12.5218 29.2173 13.7676 29.2173 15.3044H20.8694C20.8694 16.8413 22.208 18.087 23.7446 18.087H23.652C23.652 19.6239 24.8978 20.8696 26.4346 20.8696C26.4346 22.4065 27.6804 23.6523 29.2173 23.6523H34.7825C36.3194 23.6523 37.5651 22.4065 37.5651 20.8696C39.102 20.8696 40.3478 19.6239 40.3478 18.087H40.2551C41.7919 18.087 43.1304 16.8411 43.1304 15.3044Z" fill="black"/>
</g>
<defs>
<clipPath id="clip0_109_1230">
<rect width="64" height="64" fill="white"/>
</clipPath>
</defs>
</svg>
