<svg width="64" height="64" viewBox="0 0 64 64" fill="none" xmlns="http://www.w3.org/2000/svg">
<g clip-path="url(#clip0_109_1278)">
<path d="M32 64C49.6731 64 64 49.6731 64 32C64 14.3269 49.6731 0 32 0C14.3269 0 0 14.3269 0 32C0 49.6731 14.3269 64 32 64Z" fill="#F0F0F0"/>
<path d="M63.7291 27.8261H36.1741H36.174V0.270875C34.8076 0.093 33.4146 0 32 0C30.5854 0 29.1924 0.093 27.8261 0.270875V27.8259V27.826H0.270875C0.093 29.1924 0 30.5851 0 32C0 33.4149 0.093 34.8076 0.270875 36.1739H27.8259H27.826V63.7291C29.1924 63.907 30.5854 64 32 64C33.4146 64 34.8076 63.9071 36.1739 63.7291V36.1741V36.174H63.7291C63.907 34.8076 64 33.4149 64 32C64 30.5851 63.907 29.1924 63.7291 27.8261Z" fill="#D80027"/>
</g>
<defs>
<clipPath id="clip0_109_1278">
<rect width="64" height="64" fill="white"/>
</clipPath>
</defs>
</svg>
