<svg width="25" height="24" viewBox="0 0 25 24" fill="none" xmlns="http://www.w3.org/2000/svg">
<path d="M17.8154 22.5601H6.47822C4.63593 22.5601 2.95561 21.1601 2.65193 19.3601L1.30565 11.4001C1.09307 10.1601 1.70043 8.57011 2.70255 7.78011L9.71741 2.23006C11.0738 1.15006 13.2096 1.16007 14.5762 2.24007L21.591 7.78011C22.583 8.57011 23.1904 10.1601 22.9879 11.4001L21.6417 19.3601C21.338 21.1301 19.6273 22.5601 17.8154 22.5601ZM12.1367 2.94008C11.6002 2.94008 11.0637 3.10005 10.6689 3.41005L3.65406 8.9601C3.07708 9.4201 2.68231 10.4401 2.80378 11.1601L4.15007 19.1201C4.33227 20.1701 5.39512 21.0601 6.47822 21.0601H17.8154C18.8985 21.0601 19.9613 20.1701 20.1435 19.1101L21.4898 11.1501C21.6113 10.4301 21.2064 9.40009 20.6395 8.95009L13.6247 3.41005C13.2198 3.10005 12.6833 2.94008 12.1367 2.94008Z" fill="black"/>
<path d="M12.1469 16.25C10.335 16.25 8.85715 14.79 8.85715 13C8.85715 11.21 10.335 9.75 12.1469 9.75C13.9589 9.75 15.4367 11.21 15.4367 13C15.4367 14.79 13.9589 16.25 12.1469 16.25ZM12.1469 11.25C11.1752 11.25 10.3755 12.04 10.3755 13C10.3755 13.96 11.1752 14.75 12.1469 14.75C13.1187 14.75 13.9184 13.96 13.9184 13C13.9184 12.04 13.1187 11.25 12.1469 11.25Z" fill="black"/>
</svg>
