<svg width="64" height="64" viewBox="0 0 64 64" fill="none" xmlns="http://www.w3.org/2000/svg">
<g clip-path="url(#clip0_109_1090)">
<path d="M32 64C49.6731 64 64 49.6731 64 32C64 14.3269 49.6731 0 32 0C14.3269 0 0 14.3269 0 32C0 49.6731 14.3269 64 32 64Z" fill="#F0F0F0"/>
<path d="M64 32C64 19.3133 56.6168 8.35126 45.913 3.17526V60.8246C56.6168 55.6488 64 44.6868 64 32V32Z" fill="#D80027"/>
<path d="M0 32C0 44.6868 7.38313 55.6488 18.087 60.8248V3.17526C7.38313 8.35126 0 19.3133 0 32Z" fill="#6DA544"/>
<path d="M23.6521 32C23.6521 36.6104 27.3896 40.3479 32 40.3479C36.6104 40.3479 40.3478 36.6104 40.3478 32V29.2174H23.6521V32Z" fill="#6DA544"/>
<path d="M43.1304 26.4348H34.7825C34.7825 24.898 33.5366 23.6521 31.9999 23.6521C30.4631 23.6521 29.2173 24.898 29.2173 26.4348H20.8694C20.8694 27.9716 22.208 29.2174 23.7446 29.2174H23.652C23.652 30.7543 24.8978 32 26.4346 32C26.4346 33.5369 27.6804 34.7826 29.2173 34.7826H34.7825C36.3194 34.7826 37.5651 33.5369 37.5651 32C39.102 32 40.3478 30.7543 40.3478 29.2174H40.255C41.7919 29.2174 43.1304 27.9716 43.1304 26.4348Z" fill="#FF9811"/>
</g>
<defs>
<clipPath id="clip0_109_1090">
<rect width="64" height="64" fill="white"/>
</clipPath>
</defs>
</svg>
