<svg width="64" height="64" viewBox="0 0 64 64" fill="none" xmlns="http://www.w3.org/2000/svg">
<g clip-path="url(#clip0_109_1102)">
<path d="M32 64C49.6731 64 64 49.6731 64 32C64 14.3269 49.6731 0 32 0C14.3269 0 0 14.3269 0 32C0 49.6731 14.3269 64 32 64Z" fill="#D80027"/>
<path d="M50.911 26.2613H36.4642L32 12.5218L27.5357 26.2613H13.089L24.7766 34.7528L20.3122 48.4926L32 40.001L43.6877 48.4928L39.2234 34.7529L50.911 26.2613ZM28.0477 33.6899L29.5574 29.0438H34.4425L35.9522 33.6899V33.69L32 36.5614L28.0479 33.69L28.0477 33.6899ZM33.5385 26.2613H30.4616L32 21.5263L33.5385 26.2613ZM38.3191 31.9703L37.3682 29.0439H42.3469L38.3191 31.9703ZM26.6316 29.0439L25.6807 31.9703L21.6529 29.0439H26.6316ZM25.6051 41.2076L27.1436 36.4728L29.633 38.2813L25.6051 41.2076ZM34.367 38.2814L36.8564 36.4729L38.3949 41.2078L34.367 38.2814Z" fill="#FFDA44"/>
</g>
<defs>
<clipPath id="clip0_109_1102">
<rect width="64" height="64" fill="white"/>
</clipPath>
</defs>
</svg>
