<svg width="64" height="64" viewBox="0 0 64 64" fill="none" xmlns="http://www.w3.org/2000/svg">
<g clip-path="url(#clip0_109_1214)">
<path d="M0 32C0 45.7588 8.684 57.4881 20.8694 62.0095L23.6521 31.9999L20.8694 1.99039C8.684 6.51189 0 18.2411 0 32Z" fill="#6DA544"/>
<path d="M64 32C64 14.327 49.673 0 32 0C28.0858 0 24.3361 0.704125 20.8694 1.99038V62.0096C24.3361 63.296 28.0858 64 32 64C49.673 64 64 49.673 64 32Z" fill="#D80027"/>
<path d="M20.8696 43.1304C27.0168 43.1304 32 38.1471 32 32C32 25.8529 27.0168 20.8696 20.8696 20.8696C14.7225 20.8696 9.73926 25.8529 9.73926 32C9.73926 38.1471 14.7225 43.1304 20.8696 43.1304Z" fill="#FFDA44"/>
<path d="M14.6088 26.4348V33.3913C14.6088 36.849 17.4118 39.6521 20.8696 39.6521C24.3275 39.6521 27.1305 36.8491 27.1305 33.3913V26.4348H14.6088Z" fill="#D80027"/>
<path d="M20.8697 35.4783C19.7189 35.4783 18.7827 34.542 18.7827 33.3913V30.6088H22.9565V33.3914C22.9565 34.542 22.0203 35.4783 20.8697 35.4783Z" fill="#F0F0F0"/>
</g>
<defs>
<clipPath id="clip0_109_1214">
<rect width="64" height="64" fill="white"/>
</clipPath>
</defs>
</svg>
