<svg width="25" height="24" viewBox="0 0 25 24" fill="none" xmlns="http://www.w3.org/2000/svg">
<path d="M12.3085 11.62C12.2781 11.62 12.2579 11.62 12.2275 11.62C12.1769 11.61 12.1061 11.61 12.0453 11.62C9.10982 11.53 6.89301 9.25 6.89301 6.44C6.89301 3.58 9.25154 1.25 12.1466 1.25C15.0416 1.25 17.4001 3.58 17.4001 6.44C17.39 9.25 15.163 11.53 12.3389 11.62C12.3288 11.62 12.3186 11.62 12.3085 11.62ZM12.1466 2.75C10.0917 2.75 8.41137 4.41 8.41137 6.44C8.41137 8.44 9.99047 10.05 12.0048 10.12C12.0555 10.11 12.1972 10.11 12.3288 10.12C14.3128 10.03 15.8716 8.42 15.8817 6.44C15.8817 4.41 14.2014 2.75 12.1466 2.75Z" fill="black"/>
<path d="M12.3186 22.55C10.3346 22.55 8.34052 22.05 6.83227 21.05C5.42525 20.13 4.65594 18.87 4.65594 17.5C4.65594 16.13 5.42525 14.86 6.83227 13.93C9.86901 11.94 14.7885 11.94 17.805 13.93C19.2019 14.85 19.9813 16.11 19.9813 17.48C19.9813 18.85 19.212 20.12 17.805 21.05C16.2866 22.05 14.3026 22.55 12.3186 22.55ZM7.67243 15.19C6.70068 15.83 6.17431 16.65 6.17431 17.51C6.17431 18.36 6.7108 19.18 7.67243 19.81C10.1929 21.48 14.4444 21.48 16.9648 19.81C17.9366 19.17 18.463 18.35 18.463 17.49C18.463 16.64 17.9265 15.82 16.9648 15.19C14.4444 13.53 10.1929 13.53 7.67243 15.19Z" fill="black"/>
</svg>
