<svg width="64" height="64" viewBox="0 0 64 64" fill="none" xmlns="http://www.w3.org/2000/svg">
<g clip-path="url(#clip0_109_1220)">
<path d="M32 64C49.6731 64 64 49.6731 64 32C64 14.3269 49.6731 0 32 0C14.3269 0 0 14.3269 0 32C0 49.6731 14.3269 64 32 64Z" fill="#F0F0F0"/>
<path d="M64 32C64 14.327 49.673 0 32 0C25.74 0 19.9007 1.79937 14.9685 4.90637L21.9826 7.8865L12.5217 11.9062L21.9826 15.9259L12.5217 19.9454L21.9826 23.9648L12.5217 27.9836L21.9826 32.0023L12.5217 36.0218L21.9826 40.041L12.5217 44.0599L21.9826 48.0791L12.5217 52.0986L21.9826 56.1175L14.9716 59.096C19.9032 62.2015 25.7412 64 32 64C49.673 64 64 49.673 64 32Z" fill="#751A46"/>
</g>
<defs>
<clipPath id="clip0_109_1220">
<rect width="64" height="64" fill="white"/>
</clipPath>
</defs>
</svg>
