<svg width="64" height="64" viewBox="0 0 64 64" fill="none" xmlns="http://www.w3.org/2000/svg">
<g clip-path="url(#clip0_109_1281)">
<path d="M32 64C49.6731 64 64 49.6731 64 32C64 14.3269 49.6731 0 32 0C14.3269 0 0 14.3269 0 32C0 49.6731 14.3269 64 32 64Z" fill="#6DA544"/>
<path d="M18.087 38.2609C18.087 40.566 19.9557 42.4348 22.2609 42.4348H34.7826C34.7826 44.3558 36.3399 45.913 38.2609 45.913H42.4347C44.3557 45.913 45.913 44.3558 45.913 42.4348V38.2609H18.087Z" fill="#F0F0F0"/>
<path d="M46.2609 18.087V27.8261C46.2609 29.3605 45.0126 30.6088 43.4783 30.6088V34.7826C47.3141 34.7826 50.4348 31.6619 50.4348 27.8261V18.087H46.2609Z" fill="#F0F0F0"/>
<path d="M16.3479 27.8261C16.3479 29.3605 15.0996 30.6088 13.5652 30.6088V34.7826C17.4011 34.7826 20.5217 31.6619 20.5217 27.8261V18.087H16.3479V27.8261Z" fill="#F0F0F0"/>
<path d="M40 18.087H44.1739V27.8261H40V18.087Z" fill="#F0F0F0"/>
<path d="M33.7391 23.6521C33.7391 24.0358 33.427 24.3478 33.0435 24.3478C32.66 24.3478 32.3479 24.0356 32.3479 23.6521V18.0869H28.174V23.6521C28.174 24.0358 27.8619 24.3478 27.4784 24.3478C27.0949 24.3478 26.7828 24.0356 26.7828 23.6521V18.0869H22.6088V23.6521C22.6088 26.3373 24.7933 28.5218 27.4784 28.5218C28.5125 28.5218 29.4715 28.1968 30.261 27.6448C31.0504 28.1966 32.0095 28.5218 33.0436 28.5218C33.2519 28.5218 33.4566 28.5071 33.658 28.4815C33.3623 29.7001 32.2648 30.6086 30.9566 30.6086V34.7825C34.7925 34.7825 37.9131 31.6618 37.9131 27.826V23.6521V18.0869H33.7393V23.6521H33.7391Z" fill="#F0F0F0"/>
<path d="M22.6088 30.6088H28.8696V34.7826H22.6088V30.6088Z" fill="#F0F0F0"/>
</g>
<defs>
<clipPath id="clip0_109_1281">
<rect width="64" height="64" fill="white"/>
</clipPath>
</defs>
</svg>
