<svg width="25" height="24" viewBox="0 0 25 24" fill="none" xmlns="http://www.w3.org/2000/svg">
<path d="M11.1347 20.75C5.68883 20.75 1.26532 16.38 1.26532 11C1.26532 5.62 5.68883 1.25 11.1347 1.25C16.5806 1.25 21.0041 5.62 21.0041 11C21.0041 16.38 16.5806 20.75 11.1347 20.75ZM11.1347 2.75C6.52899 2.75 2.78369 6.45 2.78369 11C2.78369 15.55 6.52899 19.25 11.1347 19.25C15.7404 19.25 19.4857 15.55 19.4857 11C19.4857 6.45 15.7404 2.75 11.1347 2.75Z" fill="white"/>
<path d="M20.4069 22.79C20.3259 22.79 20.2449 22.78 20.174 22.77C19.6983 22.71 18.8379 22.39 18.352 20.96C18.0989 20.21 18.19 19.46 18.6051 18.89C19.0201 18.32 19.7185 18 20.5182 18C21.5507 18 22.3605 18.39 22.7249 19.08C23.0893 19.77 22.9881 20.65 22.4111 21.5C21.6924 22.57 20.913 22.79 20.4069 22.79ZM19.7995 20.49C19.9716 21.01 20.2145 21.27 20.3765 21.29C20.5385 21.31 20.8421 21.12 21.1559 20.67C21.4495 20.24 21.4697 19.93 21.3989 19.79C21.328 19.65 21.0446 19.5 20.5182 19.5C20.2044 19.5 19.9716 19.6 19.84 19.77C19.7185 19.94 19.6983 20.2 19.7995 20.49Z" fill="white"/>
</svg>
