<svg width="64" height="64" viewBox="0 0 64 64" fill="none" xmlns="http://www.w3.org/2000/svg">
<g clip-path="url(#clip0_109_1290)">
<path d="M45.913 3.17525C41.706 1.141 36.9863 0 32 0C27.0138 0 22.294 1.141 18.087 3.17525L15.3044 32L18.087 60.8247C22.294 62.859 27.0138 64 32 64C36.9863 64 41.706 62.859 45.913 60.8247L48.6956 32L45.913 3.17525Z" fill="#FFDA44"/>
<path d="M31.9998 20.8696L34.7623 29.3721H43.7033L36.4703 34.6275L39.2329 43.1303L31.9998 37.8753L24.7666 43.1303L27.5298 34.6275L20.2968 29.3721H29.2371L31.9998 20.8696Z" fill="#496E2D"/>
<path d="M18.087 3.17636C7.38325 8.35224 0 19.3134 0 32C0 44.6866 7.38325 55.6477 18.087 60.8236V3.17636Z" fill="#496E2D"/>
<path d="M45.913 3.17636V60.8236C56.6168 55.6477 64 44.6866 64 32C64 19.3134 56.6168 8.35224 45.913 3.17636Z" fill="#D80027"/>
</g>
<defs>
<clipPath id="clip0_109_1290">
<rect width="64" height="64" fill="white"/>
</clipPath>
</defs>
</svg>
