<svg width="64" height="64" viewBox="0 0 64 64" fill="none" xmlns="http://www.w3.org/2000/svg">
<g clip-path="url(#clip0_109_1314)">
<path d="M32 64C49.6731 64 64 49.6731 64 32C64 14.3269 49.6731 0 32 0C14.3269 0 0 14.3269 0 32C0 49.6731 14.3269 64 32 64Z" fill="#F0F0F0"/>
<path d="M43.1304 32C43.1304 34.7826 38.1471 41.7391 32 41.7391C25.8529 41.7391 20.8696 34.7826 20.8696 32C20.8696 25.8528 25.8529 20.8696 32 20.8696C38.1471 20.8696 43.1304 25.8528 43.1304 32Z" fill="#D80027"/>
<path d="M43.1304 32C43.1304 38.1473 38.1471 43.1304 32 43.1304C25.8529 43.1304 20.8696 38.1473 20.8696 32" fill="#0052B4"/>
<path d="M43.7969 41.8385L46.7478 38.8876L48.7151 40.8549L45.7642 43.8058L43.7969 41.8385Z" fill="black"/>
<path d="M38.8772 46.7569L41.8281 43.806L43.7954 45.7733L40.8445 48.7242L38.8772 46.7569Z" fill="black"/>
<path d="M49.6992 47.7401L52.6501 44.7892L54.6175 46.7565L51.6665 49.7074L49.6992 47.7401Z" fill="black"/>
<path d="M44.7797 52.6593L47.7306 49.7083L49.6979 51.6757L46.747 54.6266L44.7797 52.6593Z" fill="black"/>
<path d="M46.7478 44.7896L49.6987 41.8386L51.666 43.8059L48.7151 46.7569L46.7478 44.7896Z" fill="black"/>
<path d="M41.8296 49.7079L44.7805 46.7569L46.7478 48.7243L43.7969 51.6752L41.8296 49.7079Z" fill="black"/>
<path d="M49.7122 22.1669L41.843 14.2977L43.8103 12.3304L51.6795 20.1996L49.7122 22.1669Z" fill="black"/>
<path d="M41.8416 20.2004L38.8906 17.2495L40.8579 15.2822L43.8088 18.2332L41.8416 20.2004Z" fill="black"/>
<path d="M46.7598 25.1199L43.8088 22.1689L45.7761 20.2017L48.727 23.1526L46.7598 25.1199Z" fill="black"/>
<path d="M47.7428 14.2975L44.7919 11.3465L46.7592 9.37923L49.7101 12.3302L47.7428 14.2975Z" fill="black"/>
<path d="M52.6638 19.2175L49.7129 16.2666L51.6802 14.2993L54.6311 17.2502L52.6638 19.2175Z" fill="black"/>
<path d="M11.3444 44.784L19.2135 52.6532L17.2462 54.6205L9.37704 46.7513L11.3444 44.784Z" fill="black"/>
<path d="M19.213 46.7497L22.1639 49.7007L20.1967 51.6679L17.2458 48.717L19.213 46.7497Z" fill="black"/>
<path d="M14.2944 41.8324L17.2454 44.7834L15.278 46.7507L12.3271 43.7997L14.2944 41.8324Z" fill="black"/>
<path d="M17.2457 38.8807L25.1149 46.7499L23.1476 48.7172L15.2784 40.848L17.2457 38.8807Z" fill="black"/>
<path d="M19.2126 11.3404L11.3435 19.2096L9.37616 17.2423L17.2453 9.37312L19.2126 11.3404Z" fill="black"/>
<path d="M22.1636 14.2911L14.2944 22.1602L12.3271 20.1929L20.1963 12.3237L22.1636 14.2911Z" fill="black"/>
<path d="M25.1173 17.2438L17.2481 25.113L15.2809 23.1457L23.1501 15.2766L25.1173 17.2438Z" fill="black"/>
</g>
<defs>
<clipPath id="clip0_109_1314">
<rect width="64" height="64" fill="white"/>
</clipPath>
</defs>
</svg>
